<svg width="44" height="31" viewBox="0 0 44 31" fill="none" xmlns="http://www.w3.org/2000/svg">
<circle r="13.5" transform="matrix(-1 0 0 1 15 15.6364)" stroke="white" stroke-width="3"/>
<path d="M10.3898 14.723C10.3902 14.7226 10.3905 14.7222 10.391 14.7218L17.3307 8.01209C17.8506 7.50945 18.6915 7.51132 19.209 8.01648C19.7264 8.52157 19.7245 9.33854 19.2046 9.84125L14.5452 14.346H42.6721C43.4056 14.346 44.0002 14.9237 44.0002 15.6364C44.0002 16.349 43.4056 16.9267 42.6721 16.9267H14.5453L19.2045 21.4315C19.7244 21.9342 19.7264 22.7511 19.2089 23.2562C18.6914 23.7615 17.8505 23.7632 17.3306 23.2606L10.3909 16.5509C10.3905 16.5505 10.3902 16.5501 10.3897 16.5497C9.86957 16.0453 9.87123 15.2257 10.3898 14.723Z" fill="white"/>
</svg>
