<svg width="44" height="30" viewBox="0 0 44 30" fill="none" xmlns="http://www.w3.org/2000/svg">
<circle cx="29.0002" cy="15" r="13.5" stroke="white" stroke-width="3"/>
<path d="M33.6107 14.0866C33.6103 14.0862 33.61 14.0858 33.6095 14.0854L26.6698 7.37572C26.1499 6.87308 25.309 6.87495 24.7915 7.38011C24.274 7.88521 24.276 8.70217 24.7959 9.20488L29.4553 13.7097H1.32837C0.594845 13.7097 0.000244141 14.2873 0.000244141 15C0.000244141 15.7126 0.594845 16.2903 1.32837 16.2903H29.4552L24.796 20.7951C24.2761 21.2978 24.2741 22.1148 24.7915 22.6199C25.309 23.1251 26.15 23.1268 26.6698 22.6242L33.6096 15.9146C33.61 15.9142 33.6103 15.9137 33.6108 15.9133C34.1309 15.409 34.1293 14.5893 33.6107 14.0866Z" fill="white"/>
</svg>
